<svg fill="none" height="24" viewBox="0 0 24 24" width="24" xmlns="http://www.w3.org/2000/svg"><path clip-rule="evenodd" d="M5.31854 5.31952C5.74457 4.89349 6.4353 4.89349 6.86132 5.31952L11.5445 10.0027L16.2276 5.31952C16.6537 4.89349 17.3444 4.89349 17.7704 5.31952C18.1964 5.74555 18.1964 6.43627 17.7704 6.8623L13.0873 11.5455L17.7704 16.2286C18.1964 16.6546 18.1964 17.3454 17.7704 17.7714C17.3444 18.1974 16.6537 18.1974 16.2276 17.7714L11.5445 13.0882L6.86132 17.7714C6.4353 18.1974 5.74457 18.1974 5.31854 17.7714C4.89252 17.3454 4.89252 16.6546 5.31854 16.2286L10.0017 11.5455L5.31854 6.8623C4.89252 6.43627 4.89252 5.74555 5.31854 5.31952Z" fill="#C4C4C4" fill-rule="evenodd"></path>
</svg>