<svg version="1.0" xmlns="http://www.w3.org/2000/svg" width="200.000000pt" height="200.000000pt" viewBox="0 0 200.000000 200.000000" preserveAspectRatio="xMidYMid meet"><g transform="translate(0.000000,200.000000) scale(0.100000,-0.100000)" fill="#000000" stroke="none"><path d="M890 1611 c-283 -75 -530 -145 -548 -154 -17 -10 -44 -36 -60 -59 l-27 -42 -3 -455 c-2 -251 0 -476 3 -500 8 -56 71 -126 126 -141 25 -7 248 -10 641 -8 l603 3 33 23 c17 13 44 40 60 59 l27 36 3 446 c3 475 2 496 -44 551 -56 66 -45 64 -519 70 l-430 5 335 88 c184 48 338 87 343 87 4 0 7 -27 7 -60 l0 -60 60 0 60 0 0 85 c0 82 -1 86 -33 121 -55 60 -58 60 -637 -95z m714 -317 c14 -14 16 -69 16 -453 0 -396 -2 -440 -17 -452 -24 -21 -1182 -21 -1206 0 -15 12 -17 56 -17 452 0 384 2 439 16 453 14 14 82 16 604 16 522 0 590 -2 604 -16z"/><path d="M1380 933 c-54 -20 -81 -83 -56 -131 27 -53 111 -66 149 -24 62 69 -8 186 -93 155z"/></g></svg>