<svg
    fill="none"
    height="24"
    viewBox="0 0 25 24"
    width="25"
    xmlns="http://www.w3.org/2000/svg"
>
    <path
        d="M9.875 3.375H5.75C5.25272 3.375 4.77581 3.57254 4.42417 3.92417C4.07254 4.27581 3.875 4.75272 3.875 5.25V9.375C3.875 9.87228 4.07254 10.3492 4.42417 10.7008C4.77581 11.0525 5.25272 11.25 5.75 11.25H9.875C10.3723 11.25 10.8492 11.0525 11.2008 10.7008C11.5525 10.3492 11.75 9.87228 11.75 9.375V5.25C11.75 4.75272 11.5525 4.27581 11.2008 3.92417C10.8492 3.57254 10.3723 3.375 9.875 3.375ZM9.5 9H6.125V5.625H9.5V9ZM9.875 12.75H5.75C5.25272 12.75 4.77581 12.9475 4.42417 13.2992C4.07254 13.6508 3.875 14.1277 3.875 14.625V18.75C3.875 19.2473 4.07254 19.7242 4.42417 20.0758C4.77581 20.4275 5.25272 20.625 5.75 20.625H9.875C10.3723 20.625 10.8492 20.4275 11.2008 20.0758C11.5525 19.7242 11.75 19.2473 11.75 18.75V14.625C11.75 14.1277 11.5525 13.6508 11.2008 13.2992C10.8492 12.9475 10.3723 12.75 9.875 12.75ZM9.5 18.375H6.125V15H9.5V18.375ZM19.25 3.375H15.125C14.6277 3.375 14.1508 3.57254 13.7992 3.92417C13.4475 4.27581 13.25 4.75272 13.25 5.25V9.375C13.25 9.87228 13.4475 10.3492 13.7992 10.7008C14.1508 11.0525 14.6277 11.25 15.125 11.25H19.25C19.7473 11.25 20.2242 11.0525 20.5758 10.7008C20.9275 10.3492 21.125 9.87228 21.125 9.375V5.25C21.125 4.75272 20.9275 4.27581 20.5758 3.92417C20.2242 3.57254 19.7473 3.375 19.25 3.375ZM18.875 9H15.5V5.625H18.875V9ZM13.25 16.125V13.875C13.25 13.5766 13.3685 13.2905 13.5795 13.0795C13.7905 12.8685 14.0766 12.75 14.375 12.75C14.6734 12.75 14.9595 12.8685 15.1705 13.0795C15.3815 13.2905 15.5 13.5766 15.5 13.875V16.125C15.5 16.4234 15.3815 16.7095 15.1705 16.9205C14.9595 17.1315 14.6734 17.25 14.375 17.25C14.0766 17.25 13.7905 17.1315 13.5795 16.9205C13.3685 16.7095 13.25 16.4234 13.25 16.125ZM21.125 15.375C21.125 15.6734 21.0065 15.9595 20.7955 16.1705C20.5845 16.3815 20.2984 16.5 20 16.5H18.875V19.5C18.875 19.7984 18.7565 20.0845 18.5455 20.2955C18.3345 20.5065 18.0484 20.625 17.75 20.625H14.375C14.0766 20.625 13.7905 20.5065 13.5795 20.2955C13.3685 20.0845 13.25 19.7984 13.25 19.5C13.25 19.2016 13.3685 18.9155 13.5795 18.7045C13.7905 18.4935 14.0766 18.375 14.375 18.375H16.625V13.875C16.625 13.5766 16.7435 13.2905 16.9545 13.0795C17.1655 12.8685 17.4516 12.75 17.75 12.75C18.0484 12.75 18.3345 12.8685 18.5455 13.0795C18.7565 13.2905 18.875 13.5766 18.875 13.875V14.25H20C20.2984 14.25 20.5845 14.3685 20.7955 14.5795C21.0065 14.7905 21.125 15.0766 21.125 15.375Z"
        fill="white"
    ></path>
</svg>