<?xml version="1.0" encoding="UTF-8"?>
<svg xmlns="http://www.w3.org/2000/svg" xmlns:xlink="http://www.w3.org/1999/xlink" width="28px" height="28px" viewBox="0 0 28 28" version="1.1">
<defs>
<linearGradient id="linear0" gradientUnits="userSpaceOnUse" x1="20.386" y1="13.509" x2="11.779" y2="4.879" >
<stop offset="0" style="stop-color:rgb(44.705882%,34.509804%,86.27451%);stop-opacity:1;"/>
<stop offset="1" style="stop-color:rgb(47.45098%,49.019608%,91.764706%);stop-opacity:0;"/>
</linearGradient>
<linearGradient id="linear1" gradientUnits="userSpaceOnUse" x1="15.94" y1="18.337" x2="7.673" y2="13.584" >
<stop offset="0" style="stop-color:rgb(45.490196%,38.039216%,91.764706%);stop-opacity:1;"/>
<stop offset="1" style="stop-color:rgb(74.901961%,76.078431%,100%);stop-opacity:0;"/>
</linearGradient>
<linearGradient id="linear2" gradientUnits="userSpaceOnUse" x1="11.177" y1="13.648" x2="16.765" y2="20.749" >
<stop offset="0" style="stop-color:rgb(100%,100%,100%);stop-opacity:1;"/>
<stop offset="0.984" style="stop-color:rgb(83.529412%,80.784314%,100%);stop-opacity:1;"/>
</linearGradient>
</defs>
<g id="surface1">
<rect x="0" y="0" width="28" height="28" style="fill:rgb(52.54902%,59.215686%,100%);fill-opacity:1;stroke:none;"/>
<path style=" stroke:none;fill-rule:nonzero;fill:rgb(100%,100%,100%);fill-opacity:1;" d="M 22.539062 15.078125 C 23.21875 13.5625 19.867188 9.335938 16.664062 7.570312 C 14.648438 6.207031 12.546875 6.394531 12.121094 6.992188 C 11.1875 8.308594 15.214844 9.421875 17.910156 10.722656 C 17.328125 10.976562 16.785156 11.425781 16.464844 12.003906 C 15.460938 10.90625 13.253906 9.964844 10.667969 10.722656 C 8.925781 11.238281 7.476562 12.445312 6.914062 14.269531 C 6.507812 14.089844 6.03125 14.175781 5.707031 14.484375 C 5.386719 14.796875 5.289062 15.269531 5.453125 15.683594 C 5.621094 16.097656 6.023438 16.371094 6.472656 16.371094 C 6.582031 16.371094 6.933594 16.296875 6.933594 16.296875 L 12.546875 16.335938 C 10.300781 19.894531 8.527344 20.417969 8.527344 21.035156 C 8.527344 21.652344 10.226562 21.484375 10.863281 21.253906 C 13.914062 20.152344 17.191406 16.722656 17.753906 15.734375 C 20.113281 16.03125 22.097656 16.066406 22.539062 15.078125 Z M 22.539062 15.078125 "/>
<path style=" stroke:none;fill-rule:evenodd;fill:url(#linear0);" d="M 17.886719 10.714844 L 17.910156 10.722656 C 18.035156 10.675781 18.015625 10.488281 17.980469 10.34375 C 17.902344 10.011719 16.542969 8.667969 15.265625 8.066406 C 13.523438 7.246094 12.238281 7.289062 12.054688 7.671875 C 12.410156 8.394531 14.050781 9.078125 15.765625 9.789062 C 16.488281 10.089844 17.226562 10.394531 17.886719 10.714844 Z M 17.886719 10.714844 "/>
<path style=" stroke:none;fill-rule:evenodd;fill:url(#linear1);" d="M 15.699219 18.035156 C 15.308594 17.886719 14.90625 17.765625 14.5 17.664062 C 14.984375 16.804688 15.085938 15.527344 14.628906 14.722656 C 13.988281 13.589844 13.1875 12.984375 11.324219 12.984375 C 10.300781 12.984375 7.542969 13.332031 7.492188 15.632812 C 7.488281 15.875 7.492188 16.097656 7.511719 16.300781 L 12.546875 16.335938 C 12 17.21875 11.371094 18.050781 10.675781 18.820312 C 11.34375 18.992188 11.894531 19.136719 12.402344 19.269531 C 12.882812 19.394531 13.324219 19.507812 13.78125 19.625 C 14.453125 19.132812 15.09375 18.601562 15.699219 18.035156 Z M 15.699219 18.035156 "/>
<path style=" stroke:none;fill-rule:nonzero;fill:url(#linear2);" d="M 6.847656 16.0625 C 7.054688 17.8125 8.046875 18.496094 10.078125 18.699219 C 12.113281 18.902344 13.277344 18.769531 14.828125 18.910156 C 16.125 19.027344 17.28125 19.6875 17.710938 19.460938 C 18.097656 19.253906 17.882812 18.511719 17.363281 18.035156 C 16.695312 17.417969 15.765625 16.988281 14.136719 16.835938 C 14.460938 15.945312 14.367188 14.699219 13.863281 14.019531 C 13.132812 13.039062 11.785156 12.59375 10.078125 12.789062 C 8.296875 12.988281 6.589844 13.867188 6.847656 16.0625 Z M 6.847656 16.0625 "/>
</g>
</svg>
